<?xml version="1.0" encoding="UTF-8"?>
<svg id="Layer_2" data-name="Layer 2" xmlns="http://www.w3.org/2000/svg" width="1115.29" height="1154.84" viewBox="0 0 1115.29 1154.84">
  <defs>
    <style>
      .cls-1 {
        fill: #231f20;
      }
    </style>
  </defs>
  <g id="Layer_2-2" data-name="Layer 2">
    <path class="cls-1" d="m40.24,1154.84c-31.05-1.02-47.63-465.67-37.04-600.61,6.05-77.11,70.12-156.11,91.28-240.11,3.3-13.1,7.94-27.78,10.58-60.19,1.4-17.21,20.85-26.48,27.12-44.98,13.89-41.01,33.18-73.75,76.07-109.8,39.16-32.93,95.05-41.86,114.43-52.92,46.28-26.4,14.43-31.18,91.94-44.98,36.66-6.53,114.43,15.21,187.86,3.31,12.93-2.1,16.25,19.16,33.73,23.81,15.61,4.15,20.1-2.95,31.75,1.98,17.76,7.52,13.59,26.69,31.75,37.7,14.12,8.56,21.7.04,41.67,5.95,24.57,7.27,24.2,23.45,45.64,35.72,28.58,16.36,48.2-1.57,97.24,3.97,31.82,3.59,33.22,12.23,69.45,21.83,87.25,23.12,152.64-7.46,160.74,11.91,4.29,10.27-8.82,37.18-19.84,33.73-63.5-19.84-109.14-3.97-158.75-9.92-23.75-2.85-7.27-16.7-29.77-21.83-29.25-6.67-39.71,6.54-69.45,3.97-40.34-3.49-60.28-38.77-115.09-51.59-25.54-5.98-28.37,7.62-45.64-5.95-27.78-21.83-47.08-42-83.34-55.56-33.53-12.54-23.66-2.17-80.04-7.28-55.14-4.99-81.3-15.86-114.43-6.61-27.28,7.61-24.6,23.93-59.53,45.64-53.59,33.31-79.95,7.37-111.13,35.72-36.4,33.11-11.43,78.47-53.58,109.14-12.68,9.23-28.33,14.86-37.7,33.73-8.07,16.25-6.42,32.08-5.95,37.7,2.43,29.2-34.1,67.09-54.24,142.88-18.86,70.96-33.73,79.92-43,138.91-21.83,138.91,22.7,585.24,7.28,584.73Z"/>
  </g>
</svg>