<?xml version="1.0" encoding="UTF-8"?>
<svg id="Layer_2" data-name="Layer 2" xmlns="http://www.w3.org/2000/svg" width="232.07" height="649.57" viewBox="0 0 232.07 649.57">
  <defs>
    <style>
      .cls-1 {
        fill: #231f20;
        stroke: #231f20;
        stroke-miterlimit: 10;
        stroke-width: 3px;
      }
    </style>
  </defs>
  <g id="Layer_2-2" data-name="Layer 2">
    <path class="cls-1" d="m201.02,285.52c-13.9-89.67-32.89-126.26-55.56-179.92C109.03,19.4,61.56-3.66,55.5,2.41c-3.18,3.19,15.9,21.06,46.9,71.23-15.24,3.45-41.06,10.93-85.27,25.35-3.08,8.94-21.25,31.44-13.89,28.44,13.35-5.44,77.64-25.76,107.37-40.3,27.77,45.84,41.99,70.22,48.08,97.85,9.13,41.46,4.17,80.78,17.76,139.73,1.62,7.02,3.11,12.65,3.4,13.73,11.34,42.53,15.81,73.8,18.52,79.38,29.41,60.49-10.99,226.55,0,230.19,7.2,2.39,28.41-56.1,31.75-142.88,3.19-82.87-11.03-102.97-29.1-219.61Z"/>
  </g>
</svg>