<?xml version="1.0" encoding="UTF-8"?>
<svg id="Layer_2" data-name="Layer 2" xmlns="http://www.w3.org/2000/svg" width="491.51" height="252.29" viewBox="0 0 491.51 252.29">
  <defs>
    <style>
      .cls-1 {
        fill: #231f20;
        stroke: #231f20;
        stroke-miterlimit: 10;
        stroke-width: 3px;
      }
    </style>
  </defs>
  <g id="Layer_2-2" data-name="Layer 2">
    <path class="cls-1" d="m462.52,74.11c-16.04,6.19-14.96,35.29-18.85,50.6-.68,2.69-9.78,18.97-12.32,31.82-46.93-50.83-124.05-110.94-144.12-111.86-28.57-1.3-68.62,38.2-123.89,98.47-28.9-11.04-78.78-29.54-103.65-53.49C25.73,56.94,22.57,1.84,15.83,1.5c-8.16-.41-31.64,59.77,8.14,96.09,18.6,16.98,88.61,65.11,131.77,80.92,2,13.33,7.79,25.62,17.72,26.24,21.17,1.32,40.65-19.33,63.5,14.55,38.36,56.89,75.41,18.52,168.01,22.49,17.13.73-21.07-54.21-41.01-51.59-12.21,1.6-12.47,17.79-27.78,26.46-24.93,14.11-73.75-.76-89.96-33.07-19.91-39.68,13.61-133.25,44.98-113.77,125.68,78.05,165.81,156.84,170.66,154.78,14.88-6.31,3.14-29.06-20.11-56.36,8.54-16.91,7.28-83.96,42.6-97.1,15.47-5.76-3.75-4-21.83,2.98Z"/>
  </g>
</svg>