<?xml version="1.0" encoding="UTF-8"?>
<svg id="Layer_2" data-name="Layer 2" xmlns="http://www.w3.org/2000/svg" width="569.2" height="1378.09" viewBox="0 0 569.2 1378.09">
  <defs>
    <style>
      .cls-1 {
        fill: #231f20;
      }
    </style>
  </defs>
  <g id="Layer_2-2" data-name="Layer 2">
    <path class="cls-1" d="m.45,294.62c-4.87-2.23,31.35-86.05,41.67-109.14,6.54-14.63,12.27-26.35,21.83-39.69,10.39-14.51,14.67-16.09,19.84-25.8,11.54-21.68,3.69-39.1,5.95-53.58C95.45,29.97,168.14-6.29,230.64.92c94.79,10.94,152.47,120.33,170.66,186.53,6.33,23.05-8.4,27.16,9.92,49.61,61.52,75.41,79.38,115.09,97.24,182.56,27.14,102.52,27.78,101.2,35.72,273.85,1.16,25.31,12.73,55.03,13.89,65.48,25.8,232.17-1.54,618.91,0,619.13,1.68.24-13.89-452.44-23.81-597.3-.58-8.48-13.19-23.34-13.89-53.58-1.98-85.33,4.51-232.09-37.7-311.55-33.73-63.5-109.45-214.45-119.06-250.03-16.61-61.52-86.86-139.18-164.7-138.91-30.25.11-74.63,12.52-87.31,41.67-8.9,20.46,3.78,35.42-5.95,65.48-7.13,22.03-19.81,32.1-35.72,49.61C18.39,240.18,4.3,296.37.45,294.62Z"/>
  </g>
</svg>