<?xml version="1.0" encoding="UTF-8"?>
<svg id="Layer_2" data-name="Layer 2" xmlns="http://www.w3.org/2000/svg" width="2856.63" height="2474.32" viewBox="0 0 2856.63 2474.32">
  <defs>
    <style>
      .cls-1 {
        fill: none;
      }
    </style>
  </defs>
  <g id="Layer_2-2" data-name="Layer 2">
    <path class="cls-1" d="m2822.4,591.96c-1.88-14.44-40.36-51.19-62.36-113.96-21.68-61.87-9.93-78.77-32.25-131.16-30.6-71.82-59.93-57.1-83.86-120.41-25.91-68.56-10.75-136.73-47.3-152.66-6.89-3-11.93-2.54-23.65-8.6-25.23-13.04-30.64-30.03-45.15-40.85-20.36-15.19-50.11,14.21-77.41-4.3-26.67-18.08-92.81-28.67-141.91-10.75-57.68,21.05-95.14,70.09-141.91,150.51-18.13,31.17-47.11,179.5-90.31,268.78-5.42,11.21.87,39.88-10.75,73.11-12.91,36.9-26.03,37.42-43,75.26-24.45,54.49-14.42,91.73-34.4,98.91-17.5,6.28-41.84-15.95-43-19.35-16.14-47.32,55.29-118.76,0-301.03-35.59-117.33-179.77-154.96-174.17-212.87.53-5.46,3.45-22.39-4.3-40.85-7.13-17-17.39-21.21-32.25-40.85-16.59-21.94-12.99-33.3-23.65-43-16.83-15.31-129.15-5.53-165.57,6.45-25.03,8.24,14.42,45.4,0,83.86-9.45,25.21-25.06,28.27-23.65,40.85,3.12,27.98,80.84,18.14,144.06,60.21,75.55,50.26,90.85,148.32,98.91,199.97,3.09,19.79,20,128.17-21.5,148.36-12.07,5.87-24.71,2.17-38.7-2.15-82.07-25.32-103.68-117.69-146.21-111.81-16.84,2.33-13.2,16.77-36.55,23.65-39.84,11.74-64.83-26.03-98.91-12.9-22.23,8.57-21.18,28.34-40.85,30.1-22.96,2.05-31.25-24.28-55.91-23.65-23.21.6-28.02,24.25-47.3,25.8-25.65,2.07-39.79-37.95-75.26-83.86-62.55-80.97-112.61-78.22-118.26-126.86-5.24-45.15,35.7-51.97,19.75-82.13-13.69-25.91-47.91,21.75-74.08,13.23-19.4-6.32-10.37-53.18-33.07-41.01-47.04,25.21-86.68,8.95-95.25,37.04-6.72,22.01,2.65,35.72,2.65,35.72,0,0-23.67-15.81-39.31-10.15-11.41,4.13-12.18,6.42-4.3,49.45,3.92,21.41,34.34,9.1,49.45,27.95,10.89,13.58,4.91,24.94,10.75,43,10.24,31.71,41.91,37.76,68.81,58.06,55.17,41.63,22.46,92.03,76,155.8,46.61,55.53,113.11,66.98,108.48,84.67-4.01,15.32-17.66,23.27-27.78,44.98-14.46,31.01,32.57,72.58,19.84,92.6-9.23,14.52-60.29-5.23-66.15,7.94-4.54,10.21,23.09,29,18.52,37.04-5.07,8.91-42.4-8.27-47.63,0-7.89,12.49,66.38,68.93,58.21,82.02-5.05,8.09-35.92-9.51-47.63,2.65-13.49,14.01,15.23,50.15,5.29,60.85-13.92,14.99-81.23-44.12-177.27-76.73-75.64-25.68-77.41-3.79-158.75-26.46-115.23-32.11-120.93-78.62-230.19-105.83-65.1-16.21-192.47-2.35-243.42,29.1-53.05,32.75,11.47,62.15-58.21,89.96-15.04,6.01-18.24,18.86-29.1,37.04-13.76,23.04-14.86,33.75-18.52,63.5-5.61,45.55-23.15,66.88-52.92,111.13-31.23,46.43-49.93,84.12-50.27,129.65-.94,127.6-88.7,263.9-64.82,362.48,71.44,295.01,33.59,751.16,80.7,748.78,23.9-1.21,39.05-133.91,47.63-132.29,7.02,1.32-6.96,89.58,5.29,92.6,13.22,3.26,43.72-95.97,58.21-92.6,13.76,3.19.27,95.91,10.58,97.9,13.37,2.57,47.41-151.01,71.44-148.17,15.2,1.8,14.57,64.83,29.1,66.15,22.86,2.08,45.82-151.74,79.38-150.81,12.91.36,14.63,23.27,26.46,23.81,29.47,1.35,44.08-129.09,129.65-277.82,7.14-12.41,42.75-79.51,58.21-74.08,13.28,4.66,7.94,68.79,7.94,68.79l203.73-264.59,18.52,50.27,74.08-68.79,5.29,50.27,84.67-71.44-5.29,68.79s73.14-54.58,76.73-50.27c3.1,3.72-48.26,46.09-42.33,55.56,8.64,13.81,131.75-54.01,142.88-37.04,6.47,9.87-30.96,39.2-23.81,50.27,6.65,10.29,49.08.56,84.67-21.17,54.51-33.28,87.31-79.38,87.31-79.38l5.29,52.92,66.15-50.27,5.29,50.27,71.44-50.27,2.65,52.92,108.48-63.5s-57.05,46.79-71.44,119.06c-14.74,74.07,1.88,107.31-21.17,171.98-21.21,59.52-36.57,45.6-66.15,111.13-33.65,74.55,5.84,120.84-39.69,182.56-13.43,18.2-25.82,26.33-42.33,55.56-18.8,33.28-19.63,52.68-29.1,79.38-25.42,71.65-67.1,66.42-92.6,129.65-22.8,56.52-16.62,127.95,7.94,137.58,25.66,10.07,70.65-47.63,76.73-55.56,57.81-75.5,32.64-138.42,87.31-174.63,14.4-9.53,32.5-64.93,37.04-87.31,4.19-20.63,20.4-41.48,31.75-39.69,13.14,2.07,23.01,35.05,18.52,63.5-4.58,29.03-20.86,32.87-26.46,58.21-8.94,40.47,19.35,90.56,39.69,89.96,18.46-.54,31.4-42.88,44.98-87.31,25.1-82.14,9.83-98.37,29.1-119.06,36.47-39.17,219.61-26.46,349.25-76.73,124.43-48.25,149.9-17.83,179.92-179.92,26.46-142.88,46.18-108.99,44.98-156.11-3.31-129.78-35.72-306.14,2.65-375.71,16.7-30.29,29.92-58.48,41.99-52.76,10.23,4.85,3.42,33.32,12.9,36.55,12.89,4.39,37.17-44.25,45.15-40.85,8.84,3.76-13.55,66.58-4.3,70.96,10.76,5.09,48.11-76.5,70.96-70.96,29.53,7.17,13.85,154.85,30.1,156.97,14.07,1.83,31.28-108.12,53.76-107.51,27.67.75,39.76,168.37,60.21,167.72,14.19-.45,18.29-81.55,30.1-81.71,20.14-.26,30.25,235.21,60.21,236.52,20.25.89,32.41-105.99,53.76-105.36,31.51.93,45.41,235.01,64.51,234.37,13.61-.46,16.41-119.77,32.25-120.41,16.88-.68,31.25,134.14,47.3,133.31,15.1-.78,13.77-120.66,32.25-122.56,19.76-2.03,29.79,134.01,53.76,135.46,66.87,4.06,25.51-1030.66,2.15-1210.57Zm-952.96,1259.42c-1.93,25.08-30.01,12.44-43.66,19.84-52.62,28.54-71.1,9.35-115.09,31.75-51.37,26.15-47.69,63.25-99.22,79.38-24.44,7.65-49.61-1.98-49.61-1.98,0,0-2.04-43.49,45.64-97.24,51.56-58.11,58.09-55.42,75.41-83.34,29.38-47.39,16.63-41.12,43.66-91.28,5.83-10.81,83.34-95.25,95.25-115.09,21.71-36.18,51.59,206.38,47.63,257.97Z"/>
  </g>
</svg>