<?xml version="1.0" encoding="UTF-8"?>
<svg id="Layer_2" data-name="Layer 2" xmlns="http://www.w3.org/2000/svg" width="199.72" height="275.2" viewBox="0 0 199.72 275.2">
  <defs>
    <style>
      .cls-1 {
        fill: #231f20;
      }
    </style>
  </defs>
  <g id="Layer_2-2" data-name="Layer 2">
    <path class="cls-1" d="m.18,274.43c-2.86-4.13,27.87-21.41,64.42-69.9,27.58-36.58,41.37-54.88,42.74-74.96.51-7.51.23-21.8,9.92-29.77,7.43-6.11,15.75-4.43,21.83-5.95,28.87-7.25,10.67-85.84,31.75-93.27,7.24-2.55,15.94,3.8,19.84,7.94,20.25,21.45,4.78,82.02-29.77,103.19-14.11,8.65-23.53,5.89-33.73,17.86-11.08,12.99-7.69,25.29-13.89,45.64-6.57,21.56-18.68,35.06-31.75,49.61C48.75,261.34,3.51,279.23.18,274.43Z"/>
  </g>
</svg>