<?xml version="1.0" encoding="UTF-8"?>
<svg id="Layer_2" data-name="Layer 2" xmlns="http://www.w3.org/2000/svg" width="673.78" height="798.58" viewBox="0 0 673.78 798.58">
  <defs>
    <style>
      .cls-1 {
        fill: #231f20;
        stroke: #231f20;
        stroke-miterlimit: 10;
      }
    </style>
  </defs>
  <g id="Layer_2-2" data-name="Layer 2">
    <path class="cls-1" d="m662,522.22c-10.97-25.85-27.82-43.59-31.75-47.63-41.38-42.46-79.33-31.46-103.19-68.79-17.8-27.85-1.86-42.07-21.17-66.15-24.46-30.51-53.91-12.5-84.67-39.69-34.79-30.75-44.03-64.24-82.02-108.48-17.39-20.25-.5-26.79-29.1-44.98C206.22,80.43,86.76-13.74,88.51,2.31c4.61,42.34,94.47,35.04,128.99,107.16,12.99,27.15,37.9,25.29,60.85,44.98,22.58,19.37,33.16,46.56,52.92,66.15,31.81,31.52,46.45,78.29,79.38,108.48,1.78,1.63,3.55,3.06,5.31,4.36-2.52,1.69-5.73,4.17-9.72,7.54-19.16,16.18-101.25,144.4-161.84,134.06-33.41-5.7-30.09-46.06-85.99-88.64C101.13,342.78,26.26,301.59.53,327.75c-1.92,1.95,83.07,27.86,136.26,59.53,7.6,4.53,40.32,24,42.77,53.36,2.9,34.67-38.33,60.29-31.75,69.67,8.5,12.12,77.19-30.8,94.37-11.91,8.25,9.08-3.98,22.96,3.53,33.51,19.2,26.97,125.06-27.21,139.79-4.41,6.45,9.99-16.48,31.95-5.73,33.96,94.06,17.53,200.87-29.07,198.64-84.92,5.12,3.15,10.08,6.85,14.79,11.28,46.7,43.96,33.86,126.65,31.75,140.23-16.14,103.98-109.92,161.89-103.19,169.33,5.29,5.85,67.29-25.51,108.48-87.31,8.01-12.02,67.38-103.9,31.75-187.86Zm-140.23-6.61c-54.2,45.73-148.25-6.44-150.37-6.17-66.7,8.29,38.01-138.27,50.8-171.96,19.58,10.98,37.45,6.61,49.31,26,14,22.91-4.44,39.65,5.29,63.5,10.61,26.02,41.16,27.16,72.46,36.85-10,17.59-19.69,45.21-27.48,51.79Z"/>
  </g>
</svg>